<mxfile host="app.diagrams.net" agent="Mozilla/5.0 (Macintosh; Intel Mac OS X 10_15_7) AppleWebKit/605.1.15 (KHTML, like Gecko) Version/17.5 Safari/605.1.15" version="26.2.10">
  <diagram name="第 1 页" id="HVG5GsldBCJp14MCFW3S">
    <mxGraphModel dx="451" dy="299" grid="1" gridSize="10" guides="1" tooltips="1" connect="1" arrows="1" fold="1" page="1" pageScale="1" pageWidth="827" pageHeight="1169" math="0" shadow="0">
      <root>
        <mxCell id="0" />
        <mxCell id="1" parent="0" />
        <mxCell id="Q14jUxAjCm6_SwhUG6i5-1" value="" style="rounded=0;whiteSpace=wrap;html=1;" vertex="1" parent="1">
          <mxGeometry x="250" y="408" width="390" height="192" as="geometry" />
        </mxCell>
        <mxCell id="Q14jUxAjCm6_SwhUG6i5-2" value="" style="rounded=0;whiteSpace=wrap;html=1;" vertex="1" parent="1">
          <mxGeometry x="260" y="413" width="370" height="107" as="geometry" />
        </mxCell>
        <mxCell id="Q14jUxAjCm6_SwhUG6i5-3" value="子节点1请求队列" style="text;html=1;align=center;verticalAlign=middle;whiteSpace=wrap;rounded=0;" vertex="1" parent="1">
          <mxGeometry x="278" y="442" width="136" height="30" as="geometry" />
        </mxCell>
        <mxCell id="Q14jUxAjCm6_SwhUG6i5-4" value="外部任务请求队列" style="text;html=1;align=center;verticalAlign=middle;whiteSpace=wrap;rounded=0;" vertex="1" parent="1">
          <mxGeometry x="472" y="572" width="136" height="30" as="geometry" />
        </mxCell>
        <mxCell id="Q14jUxAjCm6_SwhUG6i5-5" value="" style="group" vertex="1" connectable="0" parent="1">
          <mxGeometry x="270" y="420" width="160" height="30" as="geometry" />
        </mxCell>
        <mxCell id="Q14jUxAjCm6_SwhUG6i5-6" value="" style="rounded=1;whiteSpace=wrap;html=1;fillColor=#f5f5f5;fontColor=#333333;strokeColor=#666666;" vertex="1" parent="Q14jUxAjCm6_SwhUG6i5-5">
          <mxGeometry width="160" height="30" as="geometry" />
        </mxCell>
        <mxCell id="Q14jUxAjCm6_SwhUG6i5-7" value="" style="ellipse;whiteSpace=wrap;html=1;aspect=fixed;" vertex="1" parent="Q14jUxAjCm6_SwhUG6i5-5">
          <mxGeometry x="8" y="5" width="20" height="20" as="geometry" />
        </mxCell>
        <mxCell id="Q14jUxAjCm6_SwhUG6i5-8" value="" style="ellipse;whiteSpace=wrap;html=1;aspect=fixed;" vertex="1" parent="Q14jUxAjCm6_SwhUG6i5-5">
          <mxGeometry x="31" y="5" width="20" height="20" as="geometry" />
        </mxCell>
        <mxCell id="Q14jUxAjCm6_SwhUG6i5-9" value="" style="ellipse;whiteSpace=wrap;html=1;aspect=fixed;" vertex="1" parent="Q14jUxAjCm6_SwhUG6i5-5">
          <mxGeometry x="54" y="5" width="20" height="20" as="geometry" />
        </mxCell>
        <mxCell id="Q14jUxAjCm6_SwhUG6i5-10" value="" style="ellipse;whiteSpace=wrap;html=1;aspect=fixed;" vertex="1" parent="Q14jUxAjCm6_SwhUG6i5-5">
          <mxGeometry x="77" y="5" width="20" height="20" as="geometry" />
        </mxCell>
        <mxCell id="Q14jUxAjCm6_SwhUG6i5-11" value="" style="ellipse;whiteSpace=wrap;html=1;aspect=fixed;" vertex="1" parent="Q14jUxAjCm6_SwhUG6i5-5">
          <mxGeometry x="100" y="5" width="20" height="20" as="geometry" />
        </mxCell>
        <mxCell id="Q14jUxAjCm6_SwhUG6i5-12" value="" style="group" vertex="1" connectable="0" parent="1">
          <mxGeometry x="460" y="420" width="160" height="30" as="geometry" />
        </mxCell>
        <mxCell id="Q14jUxAjCm6_SwhUG6i5-13" value="" style="rounded=1;whiteSpace=wrap;html=1;fillColor=#f5f5f5;fontColor=#333333;strokeColor=#666666;" vertex="1" parent="Q14jUxAjCm6_SwhUG6i5-12">
          <mxGeometry width="160" height="30" as="geometry" />
        </mxCell>
        <mxCell id="Q14jUxAjCm6_SwhUG6i5-14" value="" style="ellipse;whiteSpace=wrap;html=1;aspect=fixed;" vertex="1" parent="Q14jUxAjCm6_SwhUG6i5-12">
          <mxGeometry x="8" y="5" width="20" height="20" as="geometry" />
        </mxCell>
        <mxCell id="Q14jUxAjCm6_SwhUG6i5-15" value="" style="ellipse;whiteSpace=wrap;html=1;aspect=fixed;" vertex="1" parent="Q14jUxAjCm6_SwhUG6i5-12">
          <mxGeometry x="31" y="5" width="20" height="20" as="geometry" />
        </mxCell>
        <mxCell id="Q14jUxAjCm6_SwhUG6i5-16" value="" style="ellipse;whiteSpace=wrap;html=1;aspect=fixed;" vertex="1" parent="Q14jUxAjCm6_SwhUG6i5-12">
          <mxGeometry x="54" y="5" width="20" height="20" as="geometry" />
        </mxCell>
        <mxCell id="Q14jUxAjCm6_SwhUG6i5-17" value="子节点2请求队列" style="text;html=1;align=center;verticalAlign=middle;whiteSpace=wrap;rounded=0;" vertex="1" parent="1">
          <mxGeometry x="471" y="442" width="136" height="30" as="geometry" />
        </mxCell>
        <mxCell id="Q14jUxAjCm6_SwhUG6i5-18" value="子节点k请求队列" style="text;html=1;align=center;verticalAlign=middle;whiteSpace=wrap;rounded=0;" vertex="1" parent="1">
          <mxGeometry x="471" y="492" width="136" height="30" as="geometry" />
        </mxCell>
        <mxCell id="Q14jUxAjCm6_SwhUG6i5-19" value="...." style="text;html=1;align=center;verticalAlign=middle;resizable=0;points=[];autosize=1;strokeColor=none;fillColor=none;" vertex="1" parent="1">
          <mxGeometry x="425" y="488" width="40" height="30" as="geometry" />
        </mxCell>
        <mxCell id="Q14jUxAjCm6_SwhUG6i5-20" value="" style="group" vertex="1" connectable="0" parent="1">
          <mxGeometry x="460" y="545" width="160" height="30" as="geometry" />
        </mxCell>
        <mxCell id="Q14jUxAjCm6_SwhUG6i5-21" value="" style="rounded=1;whiteSpace=wrap;html=1;fillColor=#f5f5f5;fontColor=#333333;strokeColor=#666666;" vertex="1" parent="Q14jUxAjCm6_SwhUG6i5-20">
          <mxGeometry width="160" height="30" as="geometry" />
        </mxCell>
        <mxCell id="Q14jUxAjCm6_SwhUG6i5-22" value="" style="ellipse;whiteSpace=wrap;html=1;aspect=fixed;" vertex="1" parent="Q14jUxAjCm6_SwhUG6i5-20">
          <mxGeometry x="8" y="5" width="20" height="20" as="geometry" />
        </mxCell>
        <mxCell id="Q14jUxAjCm6_SwhUG6i5-23" value="" style="ellipse;whiteSpace=wrap;html=1;aspect=fixed;" vertex="1" parent="Q14jUxAjCm6_SwhUG6i5-20">
          <mxGeometry x="31" y="5" width="20" height="20" as="geometry" />
        </mxCell>
        <mxCell id="Q14jUxAjCm6_SwhUG6i5-24" value="" style="group" vertex="1" connectable="0" parent="1">
          <mxGeometry x="460" y="470" width="160" height="30" as="geometry" />
        </mxCell>
        <mxCell id="Q14jUxAjCm6_SwhUG6i5-25" value="" style="rounded=1;whiteSpace=wrap;html=1;fillColor=#f5f5f5;fontColor=#333333;strokeColor=#666666;" vertex="1" parent="Q14jUxAjCm6_SwhUG6i5-24">
          <mxGeometry width="160" height="30" as="geometry" />
        </mxCell>
        <mxCell id="Q14jUxAjCm6_SwhUG6i5-26" value="" style="ellipse;whiteSpace=wrap;html=1;aspect=fixed;" vertex="1" parent="Q14jUxAjCm6_SwhUG6i5-24">
          <mxGeometry x="8" y="5" width="20" height="20" as="geometry" />
        </mxCell>
        <mxCell id="Q14jUxAjCm6_SwhUG6i5-27" value="" style="ellipse;whiteSpace=wrap;html=1;aspect=fixed;" vertex="1" parent="Q14jUxAjCm6_SwhUG6i5-24">
          <mxGeometry x="31" y="5" width="20" height="20" as="geometry" />
        </mxCell>
        <mxCell id="Q14jUxAjCm6_SwhUG6i5-28" value="" style="ellipse;whiteSpace=wrap;html=1;aspect=fixed;" vertex="1" parent="Q14jUxAjCm6_SwhUG6i5-24">
          <mxGeometry x="54" y="5" width="20" height="20" as="geometry" />
        </mxCell>
        <mxCell id="Q14jUxAjCm6_SwhUG6i5-29" value="" style="ellipse;whiteSpace=wrap;html=1;aspect=fixed;" vertex="1" parent="Q14jUxAjCm6_SwhUG6i5-24">
          <mxGeometry x="77" y="5" width="20" height="20" as="geometry" />
        </mxCell>
        <mxCell id="Q14jUxAjCm6_SwhUG6i5-30" value="" style="group" vertex="1" connectable="0" parent="1">
          <mxGeometry x="270" y="544" width="160" height="30" as="geometry" />
        </mxCell>
        <mxCell id="Q14jUxAjCm6_SwhUG6i5-31" value="" style="rounded=1;whiteSpace=wrap;html=1;fillColor=#f5f5f5;fontColor=#333333;strokeColor=#666666;" vertex="1" parent="Q14jUxAjCm6_SwhUG6i5-30">
          <mxGeometry width="160" height="30" as="geometry" />
        </mxCell>
        <mxCell id="Q14jUxAjCm6_SwhUG6i5-32" value="" style="ellipse;whiteSpace=wrap;html=1;aspect=fixed;" vertex="1" parent="Q14jUxAjCm6_SwhUG6i5-30">
          <mxGeometry x="8" y="5" width="20" height="20" as="geometry" />
        </mxCell>
        <mxCell id="Q14jUxAjCm6_SwhUG6i5-33" value="" style="ellipse;whiteSpace=wrap;html=1;aspect=fixed;" vertex="1" parent="Q14jUxAjCm6_SwhUG6i5-30">
          <mxGeometry x="31" y="5" width="20" height="20" as="geometry" />
        </mxCell>
        <mxCell id="Q14jUxAjCm6_SwhUG6i5-34" value="" style="ellipse;whiteSpace=wrap;html=1;aspect=fixed;" vertex="1" parent="Q14jUxAjCm6_SwhUG6i5-30">
          <mxGeometry x="54" y="5" width="20" height="20" as="geometry" />
        </mxCell>
        <mxCell id="Q14jUxAjCm6_SwhUG6i5-35" value="" style="ellipse;whiteSpace=wrap;html=1;aspect=fixed;" vertex="1" parent="Q14jUxAjCm6_SwhUG6i5-30">
          <mxGeometry x="77" y="5" width="20" height="20" as="geometry" />
        </mxCell>
        <mxCell id="Q14jUxAjCm6_SwhUG6i5-36" value="本地任务请求队列" style="text;html=1;align=center;verticalAlign=middle;whiteSpace=wrap;rounded=0;" vertex="1" parent="1">
          <mxGeometry x="278" y="572" width="136" height="30" as="geometry" />
        </mxCell>
        <mxCell id="Q14jUxAjCm6_SwhUG6i5-37" value="子节点3请求队列" style="text;html=1;align=center;verticalAlign=middle;whiteSpace=wrap;rounded=0;" vertex="1" parent="1">
          <mxGeometry x="278" y="492" width="136" height="30" as="geometry" />
        </mxCell>
        <mxCell id="Q14jUxAjCm6_SwhUG6i5-38" value="" style="group" vertex="1" connectable="0" parent="1">
          <mxGeometry x="270" y="470" width="160" height="30" as="geometry" />
        </mxCell>
        <mxCell id="Q14jUxAjCm6_SwhUG6i5-39" value="" style="rounded=1;whiteSpace=wrap;html=1;fillColor=#f5f5f5;fontColor=#333333;strokeColor=#666666;" vertex="1" parent="Q14jUxAjCm6_SwhUG6i5-38">
          <mxGeometry width="160" height="30" as="geometry" />
        </mxCell>
        <mxCell id="Q14jUxAjCm6_SwhUG6i5-40" value="" style="ellipse;whiteSpace=wrap;html=1;aspect=fixed;" vertex="1" parent="Q14jUxAjCm6_SwhUG6i5-38">
          <mxGeometry x="8" y="5" width="20" height="20" as="geometry" />
        </mxCell>
        <mxCell id="Q14jUxAjCm6_SwhUG6i5-41" value="" style="ellipse;whiteSpace=wrap;html=1;aspect=fixed;" vertex="1" parent="Q14jUxAjCm6_SwhUG6i5-38">
          <mxGeometry x="31" y="5" width="20" height="20" as="geometry" />
        </mxCell>
        <mxCell id="Q14jUxAjCm6_SwhUG6i5-42" value="" style="ellipse;whiteSpace=wrap;html=1;aspect=fixed;" vertex="1" parent="Q14jUxAjCm6_SwhUG6i5-38">
          <mxGeometry x="54" y="5" width="20" height="20" as="geometry" />
        </mxCell>
        <mxCell id="Q14jUxAjCm6_SwhUG6i5-43" value="子节点请求队列集合" style="text;html=1;align=center;verticalAlign=middle;whiteSpace=wrap;rounded=0;" vertex="1" parent="1">
          <mxGeometry x="377" y="516" width="136" height="30" as="geometry" />
        </mxCell>
      </root>
    </mxGraphModel>
  </diagram>
</mxfile>
